<svg width="16" height="16" viewBox="0 0 16 16" fill="none" xmlns="http://www.w3.org/2000/svg">
<path d="M7.40792 1.44055C7.65013 0.949789 8.34993 0.94979 8.59214 1.44055L10.321 4.94358C10.4172 5.13846 10.6031 5.27353 10.8181 5.30478L14.684 5.86652C15.2256 5.94522 15.4418 6.61077 15.0499 6.99278L12.2526 9.7195C12.097 9.8712 12.0259 10.0898 12.0627 10.304L12.723 14.1541C12.8156 14.6935 12.2494 15.1049 11.765 14.8502L8.30729 13.0324C8.11493 12.9313 7.88513 12.9313 7.69277 13.0324L4.23507 14.8502C3.75067 15.1049 3.18451 14.6935 3.27702 14.1541L3.93738 10.304C3.97412 10.0898 3.90311 9.8712 3.74749 9.7195L0.950153 6.99278C0.558257 6.61077 0.774511 5.94522 1.3161 5.86652L5.18192 5.30478C5.39698 5.27353 5.5829 5.13846 5.67908 4.94358L7.40792 1.44055Z" fill="#FC6736" stroke="#FC6736" stroke-width="0.725"/>
<path d="M8.00003 1.83105C8.00003 1.83105 8.00003 4.13285 8.00003 5.47898" stroke="#F9F6EF" stroke-width="0.7" stroke-linecap="round"/>
<path d="M14.4631 6.54987C14.4631 6.54987 12.2806 7.24306 11.0004 7.65903" stroke="#F9F6EF" stroke-width="0.7" stroke-linecap="round"/>
<path d="M1.7708 6.66632C1.7708 6.66632 3.71926 7.24289 4.99951 7.65887" stroke="#F9F6EF" stroke-width="0.7" stroke-linecap="round"/>
<path d="M4.09967 14.0895C4.09967 14.0895 5.35423 12.2752 6.14546 11.1861" stroke="#F9F6EF" stroke-width="0.7" stroke-linecap="round"/>
<path d="M6.021 5.88029C6.021 5.88029 6.20668 6.16551 6.99791 7.25455" stroke="#F9F6EF" stroke-width="0.5" stroke-linecap="round"/>
<path d="M10.0091 5.70565C10.0091 5.70565 9.67621 6.21746 9.00211 7.25457" stroke="#F9F6EF" stroke-width="0.5" stroke-linecap="round"/>
<path d="M4.68188 9.78115C4.68188 9.78115 5.09837 9.57665 6.37861 9.16067" stroke="#F9F6EF" stroke-width="0.5" stroke-linecap="round"/>
<path d="M11.4064 9.75203C11.4064 9.75203 10.9017 9.57665 9.62144 9.16067" stroke="#F9F6EF" stroke-width="0.5" stroke-linecap="round"/>
<path d="M8.00003 12.2847C8.00003 12.2847 8.00003 11.6849 8.00003 10.3388" stroke="#F9F6EF" stroke-width="0.5" stroke-linecap="round"/>
<path d="M12.0469 14.1769C12.0469 14.1769 10.6457 12.2752 9.85442 11.1861" stroke="#F9F6EF" stroke-width="0.7" stroke-linecap="round"/>
<circle cx="8.00003" cy="8.53262" r="0.628047" fill="#F9F6EF"/>
</svg>
