<svg width="16" height="16" viewBox="0 0 16 16" fill="none" xmlns="http://www.w3.org/2000/svg">
<path d="M1.74963 8.49768H10.0807C10.1878 8.49783 10.275 8.58483 10.275 8.69202V12.1627C10.275 13.4202 9.25521 14.4401 7.99768 14.4401H3.83264C2.57511 14.4401 1.5553 13.4202 1.5553 12.1627V8.69202C1.5553 8.58474 1.64236 8.49768 1.74963 8.49768Z" stroke="#878672"/>
<path d="M10.2773 9.73331H13.4647C13.8961 9.73331 14.2457 10.083 14.2457 10.5143C14.2457 11.8084 13.1967 12.8574 11.9027 12.8574H10.1774" stroke="#878672"/>
<path d="M4.43363 6.95617V6.60905C4.43363 6.15841 4.28747 5.71993 4.01709 5.35942C3.64683 4.86574 3.64683 4.18692 4.01709 3.69324C4.28747 3.33273 4.43363 2.89425 4.43363 2.44361V1.40225" stroke="#878672" stroke-width="0.7" stroke-linecap="round" stroke-linejoin="round"/>
<path d="M2.69833 6.95651V6.24292C2.69833 6.02737 2.64814 5.81478 2.55174 5.62198L2.31456 5.14762C2.11911 4.75672 2.11912 4.29662 2.31456 3.90572L2.55174 3.43136C2.64814 3.23856 2.69833 3.02597 2.69833 2.81042V2.09683" stroke="#878672" stroke-width="0.7" stroke-linecap="round" stroke-linejoin="round"/>
<path d="M6.9563 2.5598V6.95633L8.29563 5.617C8.42582 5.48681 8.60241 5.41366 8.78653 5.41366H13.6668C14.4337 5.41366 15.0553 4.79202 15.0553 4.02518V2.5598C15.0553 1.79297 14.4337 1.17133 13.6668 1.17133H8.34478C7.57794 1.17133 6.9563 1.79297 6.9563 2.5598Z" stroke="#878672" stroke-width="0.8" stroke-linejoin="round"/>
<circle cx="9.84872" cy="3.18075" r="0.6" fill="#878672"/>
<circle cx="12.1628" cy="3.18075" r="0.6" fill="#878672"/>
</svg>
