<svg width="16" height="16" viewBox="0 0 16 16" fill="none" xmlns="http://www.w3.org/2000/svg">
<circle cx="6.79981" cy="6.79981" r="6.39981" transform="matrix(-1 0 0 1 15 1)" stroke="#878672" stroke-width="0.8" stroke-linecap="round"/>
<path d="M3.49255 12.5074L0.999927 15" stroke="#878672" stroke-linecap="round"/>
<path d="M3.92701 7.52269C3.82895 7.69678 3.82947 7.90265 3.92817 8.07638C4.31532 8.75782 5.54885 10.4627 8.20012 10.4627C10.6464 10.4627 11.9811 8.80151 12.434 8.10325C12.556 7.91521 12.5614 7.68131 12.4455 7.48946C12.0247 6.79302 10.7675 5.16419 8.20012 5.13696C5.53724 5.13696 4.31107 6.84086 3.92701 7.52269Z" stroke="#878672" stroke-width="0.8"/>
<circle cx="1.7338" cy="1.7338" r="1.7338" transform="matrix(-1 0 0 1 9.93396 6.06607)" fill="#878672"/>
</svg>
