<svg width="48" height="48" viewBox="0 0 48 48" fill="none" xmlns="http://www.w3.org/2000/svg">
<path d="M0 24C0 10.7452 10.7452 0 24 0C37.2548 0 48 10.7452 48 24C48 37.2548 37.2548 48 24 48C10.7452 48 0 37.2548 0 24Z" fill="#FC6736"/>
<path d="M14.2773 9.98535C17.0354 8.06845 20.3862 6.94482 23.9994 6.94482C33.4187 6.94482 41.0544 14.5806 41.0544 23.9998C41.0544 33.419 33.4187 41.0548 23.9994 41.0548C20.3862 41.0548 17.0354 39.9312 14.2773 38.0143" stroke="#F9F6EF" stroke-width="1.5" stroke-linecap="round"/>
<path d="M11.084 17.9646L17.1196 24.0001M17.1196 24.0001L11.084 30.0358M17.1196 24.0001H6.92468" stroke="#F9F6EF" stroke-width="1.8" stroke-linecap="round" stroke-linejoin="round"/>
<path d="M20.1397 40.4847C19.6908 39.3965 19.3015 38.4699 19.3015 36.5699C19.3015 32.0238 21.8404 27.3751 24.9526 25.2852C23.61 24.269 22.7426 22.658 22.7426 20.8444C22.7426 17.7705 25.2346 15.2786 28.3085 15.2786C31.3824 15.2786 33.8743 17.7705 33.8743 20.8444C33.8743 22.6579 33.007 24.2689 31.6645 25.285C34.3134 27.0638 36.6589 30.8633 37.1339 34.7584" stroke="#F9F6EF" stroke-width="1.8" stroke-linejoin="round"/>
</svg>
