<svg width="32" height="32" viewBox="0 0 32 32" fill="none" xmlns="http://www.w3.org/2000/svg">
<path d="M0 16C0 7.16344 7.16344 0 16 0C24.8366 0 32 7.16344 32 16C32 24.8366 24.8366 32 16 32C7.16344 32 0 24.8366 0 16Z" fill="#878672"/>
<path d="M10.5981 8.21408C12.1303 7.14914 13.9919 6.5249 15.9992 6.5249C21.2321 6.5249 25.4742 10.767 25.4742 15.9999C25.4742 21.2328 21.2321 25.4749 15.9992 25.4749C13.9919 25.4749 12.1303 24.8507 10.5981 23.7857" stroke="#F9F6EF" stroke-linecap="round"/>
<path d="M8.82448 12.6471L12.1776 16.0002M12.1776 16.0002L8.82448 19.3533M12.1776 16.0002H6.51376" stroke="#F9F6EF" stroke-linecap="round" stroke-linejoin="round"/>
<path d="M13.8558 25.1581C13.6064 24.5534 13.3902 24.0387 13.3902 22.9831C13.3902 20.4575 14.8007 17.8749 16.5297 16.7138C15.7838 16.1493 15.3019 15.2543 15.3019 14.2468C15.3019 12.539 16.6863 11.1546 18.3941 11.1546C20.1018 11.1546 21.4862 12.539 21.4862 14.2468C21.4862 15.2543 21.0043 16.1492 20.2585 16.7138C21.7301 17.702 22.9711 19.7199 23.308 21.856" stroke="#F9F6EF" stroke-linejoin="round"/>
</svg>
