<svg width="16" height="16" viewBox="0 0 16 16" fill="none" xmlns="http://www.w3.org/2000/svg">
<g opacity="0.35">
<path d="M7.99976 1.50012C10.4854 1.50012 12.4839 3.47365 12.4841 5.88782V7.10364C12.4843 7.67718 12.748 8.15232 13.0476 8.52942C13.3433 8.9015 13.7221 9.23505 14.0115 9.50208C14.3007 9.76912 14.4783 10.1444 14.4783 10.5587C14.4781 11.3532 13.8182 12.0138 12.9841 12.0138H3.01636C2.18228 12.0138 1.52236 11.3532 1.52222 10.5587C1.52222 10.1443 1.69974 9.76913 1.98901 9.50208C2.27838 9.23505 2.65721 8.9015 2.95288 8.52942C3.25247 8.15233 3.51622 7.67713 3.51636 7.10364V5.88782C3.5166 3.47378 5.51429 1.50033 7.99976 1.50012Z" stroke="#878672" stroke-linecap="round"/>
<path d="M10.3222 12.1642C10.3222 13.4464 9.28282 14.4858 8.00065 14.4858C6.71848 14.4858 5.67908 13.4464 5.67908 12.1642" stroke="#878672" stroke-linecap="round"/>
</g>
</svg>
